<?xml version="1.0" encoding="UTF-8"?>
<!DOCTYPE svg PUBLIC "-//W3C//DTD SVG 1.1//EN" "http://www.w3.org/Graphics/SVG/1.1/DTD/svg11.dtd">
<svg xmlns="http://www.w3.org/2000/svg" version="1.1" width="2816px" height="1536px" style="shape-rendering:geometricPrecision; text-rendering:geometricPrecision; image-rendering:optimizeQuality; fill-rule:evenodd; clip-rule:evenodd" xmlns:xlink="http://www.w3.org/1999/xlink">
<g><path style="opacity:1" fill="#038002" d="M 685.5,338.5 C 689.712,341.199 693.545,344.532 697,348.5C 721.667,377.167 746.333,405.833 771,434.5C 773.408,438.376 775.908,442.043 778.5,445.5C 757.182,441.879 736.015,437.545 715,432.5C 699.597,461.642 684.93,491.308 671,521.5C 670.261,522.574 669.261,523.241 668,523.5C 626.975,503.654 586.308,482.987 546,461.5C 547.71,455.388 550.044,449.388 553,443.5C 567.044,416.079 580.544,388.412 593.5,360.5C 596.202,358.653 599.202,357.487 602.5,357C 630.323,350.958 657.989,344.791 685.5,338.5 Z"/></g>
<g><path style="opacity:1" fill="#028001" d="M 329.5,821.5 C 328.833,821.167 328.167,820.833 327.5,820.5C 307.372,811.173 287.538,801.173 268,790.5C 260,761.833 252,733.167 244,704.5C 242.673,699.88 242.007,695.213 242,690.5C 255.705,660.924 269.538,631.424 283.5,602C 322.954,590.404 362.287,578.404 401.5,566C 367.986,565.814 334.819,565.314 302,564.5C 301.675,562.447 302.009,560.447 303,558.5C 315.211,534.745 326.878,510.745 338,486.5C 341.453,482.855 345.62,480.355 350.5,479C 378.266,470.134 405.933,460.967 433.5,451.5C 448.562,459.031 463.562,466.531 478.5,474C 483.369,476.597 488.036,479.43 492.5,482.5C 437.982,595.374 383.649,708.374 329.5,821.5 Z"/></g>
<g><path style="opacity:1" fill="#018000" d="M 525.5,498.5 C 581.299,525.733 636.966,553.566 692.5,582C 729.274,607.01 750.107,641.843 755,686.5C 758.936,744.465 737.103,789.631 689.5,822C 676.371,828.732 662.704,834.065 648.5,838C 599.698,839.152 550.864,839.652 502,839.5C 455.167,839.167 408.333,838.833 361.5,838.5C 416.226,725.052 470.893,611.719 525.5,498.5 Z M 576.5,631.5 C 592.584,640.141 608.918,648.307 625.5,656C 643.697,666.882 652.697,683.049 652.5,704.5C 650.472,729.411 637.472,745.245 613.5,752C 606.189,752.831 598.856,753.331 591.5,753.5C 569.13,753.073 545.963,753.073 522,753.5C 520.933,752.809 519.766,752.309 518.5,752C 537.655,711.854 556.988,671.687 576.5,631.5 Z"/></g>
<g><path style="opacity:1" fill="#7e5f3e" d="M 2271.5,609.5 C 2307.57,623.405 2343.23,638.072 2378.5,653.5C 2377.42,653.539 2376.42,653.873 2375.5,654.5C 2373.02,653.103 2370.35,652.269 2367.5,652C 2362.93,649.545 2358.26,647.379 2353.5,645.5C 2342.55,640.432 2331.22,636.598 2319.5,634C 2314.61,631.353 2309.61,628.853 2304.5,626.5C 2303.91,626.709 2303.41,627.043 2303,627.5C 2300.81,625.765 2298.31,624.598 2295.5,624C 2294.1,620.936 2291.77,618.936 2288.5,618C 2281.99,617.242 2275.99,615.076 2270.5,611.5C 2270.86,610.817 2271.2,610.15 2271.5,609.5 Z"/></g>
<g><path style="opacity:1" fill="#855a2d" d="M 2270.5,609.5 C 2270.83,609.5 2271.17,609.5 2271.5,609.5C 2271.2,610.15 2270.86,610.817 2270.5,611.5C 2275.99,615.076 2281.99,617.242 2288.5,618C 2291.77,618.936 2294.1,620.936 2295.5,624C 2298.31,624.598 2300.81,625.765 2303,627.5C 2303.41,627.043 2303.91,626.709 2304.5,626.5C 2309.61,628.853 2314.61,631.353 2319.5,634C 2331.22,636.598 2342.55,640.432 2353.5,645.5C 2354.48,647.145 2355.81,648.479 2357.5,649.5C 2356.97,650.192 2356.31,650.692 2355.5,651C 2355.83,651.333 2356.17,651.667 2356.5,652C 2353.77,652.182 2351.11,652.682 2348.5,653.5C 2349.03,654.192 2349.69,654.692 2350.5,655C 2353.5,655.333 2356.5,655.667 2359.5,656C 2361.62,657.738 2361.46,659.572 2359,661.5C 2358.38,660.551 2358.55,659.718 2359.5,659C 2357,657.017 2355.84,657.85 2356,661.5C 2355.33,660.167 2354.67,660.167 2354,661.5C 2353.52,660.552 2353.35,659.552 2353.5,658.5C 2351.94,658.519 2350.44,658.852 2349,659.5C 2347.57,657.33 2346.07,657.164 2344.5,659C 2345.56,660.188 2346.9,660.688 2348.5,660.5C 2348.36,662.124 2349.03,663.29 2350.5,664C 2349.58,664.374 2348.75,664.874 2348,665.5C 2346.51,663.18 2344.68,663.013 2342.5,665C 2342.91,667.861 2342.07,668.028 2340,665.5C 2339.67,666.167 2339.33,666.833 2339,667.5C 2337.33,667.167 2335.67,666.833 2334,666.5C 2331.63,669.288 2330.29,668.954 2330,665.5C 2327.05,667.193 2326.88,669.026 2329.5,671C 2326.38,672.449 2323.88,674.616 2322,677.5C 2321.52,676.552 2321.35,675.552 2321.5,674.5C 2319.01,676.12 2316.34,677.62 2313.5,679C 2314.83,679.667 2314.83,680.333 2313.5,681C 2312.55,681.617 2311.72,681.451 2311,680.5C 2310.52,681.448 2310.35,682.448 2310.5,683.5C 2315.23,684.774 2319.73,684.774 2324,683.5C 2324.17,683.833 2324.33,684.167 2324.5,684.5C 2317.71,686.219 2311.21,685.552 2305,682.5C 2304.24,682.57 2303.74,682.903 2303.5,683.5C 2301.5,683.5 2299.5,683.5 2297.5,683.5C 2297.49,681.983 2296.82,680.816 2295.5,680C 2285.8,677.31 2276.8,673.31 2268.5,668C 2265.88,667.178 2263.22,666.678 2260.5,666.5C 2260.71,664.856 2260.38,663.356 2259.5,662C 2257.21,663.101 2255.71,662.268 2255,659.5C 2254.59,659.957 2254.09,660.291 2253.5,660.5C 2252.64,658.803 2251.3,657.637 2249.5,657C 2250.29,653.589 2250.79,650.089 2251,646.5C 2251.5,646 2252,645.5 2252.5,645C 2251.55,641.943 2251.22,638.777 2251.5,635.5C 2254.48,631.38 2255.98,626.713 2256,621.5C 2257.51,618.476 2259.51,615.809 2262,613.5C 2262.49,611.866 2262.66,610.199 2262.5,608.5C 2265.21,608.575 2267.87,608.908 2270.5,609.5 Z"/></g>
<g><path style="opacity:1" fill="#7d5833" d="M 2251.5,635.5 C 2251.22,638.777 2251.55,641.943 2252.5,645C 2252,645.5 2251.5,646 2251,646.5C 2250.79,650.089 2250.29,653.589 2249.5,657C 2251.3,657.637 2252.64,658.803 2253.5,660.5C 2254.09,660.291 2254.59,659.957 2255,659.5C 2255.71,662.268 2257.21,663.101 2259.5,662C 2260.38,663.356 2260.71,664.856 2260.5,666.5C 2263.22,666.678 2265.88,667.178 2268.5,668C 2276.8,673.31 2285.8,677.31 2295.5,680C 2296.82,680.816 2297.49,681.983 2297.5,683.5C 2287.2,680.07 2277.2,676.07 2267.5,671.5C 2267.59,670.504 2267.25,669.671 2266.5,669C 2261.19,667.051 2255.86,665.051 2250.5,663C 2248.23,662.028 2246.23,660.695 2244.5,659C 2245.8,654.929 2246.63,650.762 2247,646.5C 2248.66,642.787 2250.16,639.12 2251.5,635.5 Z"/></g>
<g><path style="opacity:1" fill="#796043" d="M 2270.5,609.5 C 2267.87,608.908 2265.21,608.575 2262.5,608.5C 2262.66,610.199 2262.49,611.866 2262,613.5C 2259.51,615.809 2257.51,618.476 2256,621.5C 2255.98,626.713 2254.48,631.38 2251.5,635.5C 2250.16,639.12 2248.66,642.787 2247,646.5C 2246.63,650.762 2245.8,654.929 2244.5,659C 2246.23,660.695 2248.23,662.028 2250.5,663C 2255.86,665.051 2261.19,667.051 2266.5,669C 2267.25,669.671 2267.59,670.504 2267.5,671.5C 2257.91,668.082 2248.58,664.082 2239.5,659.5C 2246.57,641.793 2253.74,624.127 2261,606.5C 2264.58,605.856 2267.74,606.856 2270.5,609.5 Z"/></g>
<g><path style="opacity:1" fill="#058003" d="M 1356.5,665.5 C 1357.83,665.5 1359.17,665.5 1360.5,665.5C 1360.56,769.615 1360.89,874.115 1361.5,979C 1357.3,980.161 1352.96,980.995 1348.5,981.5C 1336.5,981.936 1324.17,981.436 1311.5,980C 1309.73,973.396 1307.73,966.896 1305.5,960.5C 1299.39,966.105 1294.22,972.439 1290,979.5C 1288.22,980.24 1286.38,980.907 1284.5,981.5C 1265.64,981.495 1246.8,981.495 1228,981.5C 1215.89,969.296 1204.22,956.629 1193,943.5C 1192.12,939.887 1191.62,936.22 1191.5,932.5C 1191.63,885.437 1191.63,836.937 1191.5,787C 1192.46,785.581 1193.29,784.081 1194,782.5C 1204.95,771.43 1215.78,760.263 1226.5,749C 1246.83,748.333 1267.17,748.333 1287.5,749C 1292.33,755.167 1297.17,761.333 1302,767.5C 1302.21,739.82 1302.88,712.154 1304,684.5C 1316.34,679.944 1328.84,675.777 1341.5,672C 1346.64,669.906 1351.64,667.74 1356.5,665.5 Z M 1254.5,803.5 C 1270.54,803.212 1286.54,803.545 1302.5,804.5C 1302.74,845.562 1302.74,885.562 1302.5,924.5C 1286.5,924.667 1270.5,924.5 1254.5,924C 1252.38,922.269 1250.88,920.102 1250,917.5C 1249.33,882.5 1249.33,847.5 1250,812.5C 1250.33,810.833 1250.67,809.167 1251,807.5C 1252.38,806.295 1253.54,804.962 1254.5,803.5 Z"/></g>
<g><path style="opacity:1" fill="#806749" d="M 2385.5,656.5 C 2397.45,660.649 2409.11,665.483 2420.5,671C 2414.59,685.299 2408.59,699.465 2402.5,713.5C 2402.13,710.018 2403.13,707.018 2405.5,704.5C 2404.61,701.916 2404.27,699.249 2404.5,696.5C 2407.08,692.74 2409.91,689.073 2413,685.5C 2413.46,681.581 2414.29,677.748 2415.5,674C 2414.19,670.85 2411.85,669.017 2408.5,668.5C 2402.76,663.874 2396.09,661.041 2388.5,660C 2386.94,659.241 2385.94,658.074 2385.5,656.5 Z"/></g>
<g><path style="opacity:1" fill="#7f562c" d="M 2353.5,645.5 C 2358.26,647.379 2362.93,649.545 2367.5,652C 2370.35,652.269 2373.02,653.103 2375.5,654.5C 2376.42,653.873 2377.42,653.539 2378.5,653.5C 2381.24,653.707 2383.57,654.707 2385.5,656.5C 2385.94,658.074 2386.94,659.241 2388.5,660C 2396.09,661.041 2402.76,663.874 2408.5,668.5C 2401.03,668.439 2393.69,668.106 2386.5,667.5C 2383.96,668.735 2383.96,669.901 2386.5,671C 2385.79,672.255 2384.96,673.421 2384,674.5C 2383.59,674.043 2383.09,673.709 2382.5,673.5C 2378.97,674.866 2376.3,676.533 2374.5,678.5C 2372.79,676.29 2370.79,676.123 2368.5,678C 2371.54,678.359 2371.88,679.026 2369.5,680C 2370.14,681.707 2370.14,683.54 2369.5,685.5C 2367.55,685.773 2366.05,685.107 2365,683.5C 2364.78,686.943 2363.78,687.276 2362,684.5C 2360.96,685.623 2360.29,686.956 2360,688.5C 2359.59,688.043 2359.09,687.709 2358.5,687.5C 2356.27,688.963 2353.94,689.797 2351.5,690C 2351.96,690.414 2352.29,690.914 2352.5,691.5C 2350.81,693.554 2349.64,695.888 2349,698.5C 2347.31,697.675 2347.15,696.675 2348.5,695.5C 2343.2,692.374 2342.03,693.707 2345,699.5C 2346.15,700.636 2347.31,701.636 2348.5,702.5C 2342.41,700.289 2336.41,697.789 2330.5,695C 2328.17,693 2326.67,690.5 2326,687.5C 2323.94,687.24 2321.77,687.574 2319.5,688.5C 2316.5,688 2313.5,687.5 2310.5,687C 2307.92,686.14 2305.58,684.973 2303.5,683.5C 2303.74,682.903 2304.24,682.57 2305,682.5C 2311.21,685.552 2317.71,686.219 2324.5,684.5C 2324.33,684.167 2324.17,683.833 2324,683.5C 2319.73,684.774 2315.23,684.774 2310.5,683.5C 2310.35,682.448 2310.52,681.448 2311,680.5C 2311.72,681.451 2312.55,681.617 2313.5,681C 2314.83,680.333 2314.83,679.667 2313.5,679C 2316.34,677.62 2319.01,676.12 2321.5,674.5C 2321.35,675.552 2321.52,676.552 2322,677.5C 2323.88,674.616 2326.38,672.449 2329.5,671C 2326.88,669.026 2327.05,667.193 2330,665.5C 2330.29,668.954 2331.63,669.288 2334,666.5C 2335.67,666.833 2337.33,667.167 2339,667.5C 2339.33,666.833 2339.67,666.167 2340,665.5C 2342.07,668.028 2342.91,667.861 2342.5,665C 2344.68,663.013 2346.51,663.18 2348,665.5C 2348.75,664.874 2349.58,664.374 2350.5,664C 2349.03,663.29 2348.36,662.124 2348.5,660.5C 2346.9,660.688 2345.56,660.188 2344.5,659C 2346.07,657.164 2347.57,657.33 2349,659.5C 2350.44,658.852 2351.94,658.519 2353.5,658.5C 2353.35,659.552 2353.52,660.552 2354,661.5C 2354.67,660.167 2355.33,660.167 2356,661.5C 2355.84,657.85 2357,657.017 2359.5,659C 2358.55,659.718 2358.38,660.551 2359,661.5C 2361.46,659.572 2361.62,657.738 2359.5,656C 2356.5,655.667 2353.5,655.333 2350.5,655C 2349.69,654.692 2349.03,654.192 2348.5,653.5C 2351.11,652.682 2353.77,652.182 2356.5,652C 2356.17,651.667 2355.83,651.333 2355.5,651C 2356.31,650.692 2356.97,650.192 2357.5,649.5C 2355.81,648.479 2354.48,647.145 2353.5,645.5 Z"/></g>
<g><path style="opacity:1" fill="#895e2e" d="M 2408.5,668.5 C 2411.85,669.017 2414.19,670.85 2415.5,674C 2414.29,677.748 2413.46,681.581 2413,685.5C 2409.91,689.073 2407.08,692.74 2404.5,696.5C 2403.5,696.5 2402.5,696.5 2401.5,696.5C 2401.69,698.103 2401.19,699.437 2400,700.5C 2400.36,695.892 2399.03,694.892 2396,697.5C 2393.05,693.6 2390.38,693.933 2388,698.5C 2383.95,696.818 2383.12,697.485 2385.5,700.5C 2385.29,701.086 2384.96,701.586 2384.5,702C 2382.62,701.49 2380.79,701.657 2379,702.5C 2377.45,700.436 2374.95,698.769 2371.5,697.5C 2373.37,696.203 2373.7,694.703 2372.5,693C 2374.32,690.394 2374.82,687.56 2374,684.5C 2373.35,685.696 2372.85,685.696 2372.5,684.5C 2374.35,683.24 2376.19,683.24 2378,684.5C 2380,683.833 2381.33,682.5 2382,680.5C 2382.33,680.833 2382.67,681.167 2383,681.5C 2383.33,680.5 2383.67,679.5 2384,678.5C 2388.35,680.253 2389.18,679.42 2386.5,676C 2389.25,673.237 2391.75,673.737 2394,677.5C 2395.78,675.481 2397.94,673.981 2400.5,673C 2400.17,672.667 2399.83,672.333 2399.5,672C 2400.77,671.691 2401.93,671.191 2403,670.5C 2403.33,670.833 2403.67,671.167 2404,671.5C 2405.08,669.606 2406.41,669.273 2408,670.5C 2408.46,669.906 2408.63,669.239 2408.5,668.5 Z"/></g>
<g><path style="opacity:1" fill="#7a5c3a" d="M 2297.5,683.5 C 2299.5,683.5 2301.5,683.5 2303.5,683.5C 2305.58,684.973 2307.92,686.14 2310.5,687C 2313.5,687.5 2316.5,688 2319.5,688.5C 2321.77,687.574 2323.94,687.24 2326,687.5C 2326.67,690.5 2328.17,693 2330.5,695C 2336.41,697.789 2342.41,700.289 2348.5,702.5C 2351.26,703.631 2353.59,705.298 2355.5,707.5C 2335.81,700.057 2316.48,692.057 2297.5,683.5 Z"/></g>
<g><path style="opacity:1" fill="#865c2f" d="M 2408.5,668.5 C 2408.63,669.239 2408.46,669.906 2408,670.5C 2406.41,669.273 2405.08,669.606 2404,671.5C 2403.67,671.167 2403.33,670.833 2403,670.5C 2401.93,671.191 2400.77,671.691 2399.5,672C 2399.83,672.333 2400.17,672.667 2400.5,673C 2397.94,673.981 2395.78,675.481 2394,677.5C 2391.75,673.737 2389.25,673.237 2386.5,676C 2389.18,679.42 2388.35,680.253 2384,678.5C 2383.67,679.5 2383.33,680.5 2383,681.5C 2382.67,681.167 2382.33,680.833 2382,680.5C 2381.33,682.5 2380,683.833 2378,684.5C 2376.19,683.24 2374.35,683.24 2372.5,684.5C 2372.85,685.696 2373.35,685.696 2374,684.5C 2374.82,687.56 2374.32,690.394 2372.5,693C 2373.7,694.703 2373.37,696.203 2371.5,697.5C 2374.95,698.769 2377.45,700.436 2379,702.5C 2380.79,701.657 2382.62,701.49 2384.5,702C 2384.96,701.586 2385.29,701.086 2385.5,700.5C 2383.12,697.485 2383.95,696.818 2388,698.5C 2390.38,693.933 2393.05,693.6 2396,697.5C 2399.03,694.892 2400.36,695.892 2400,700.5C 2401.19,699.437 2401.69,698.103 2401.5,696.5C 2402.5,696.5 2403.5,696.5 2404.5,696.5C 2404.27,699.249 2404.61,701.916 2405.5,704.5C 2403.13,707.018 2402.13,710.018 2402.5,713.5C 2402.5,713.833 2402.5,714.167 2402.5,714.5C 2401.5,714.5 2400.5,714.5 2399.5,714.5C 2399.85,718.177 2399.18,720.844 2397.5,722.5C 2391.23,719.365 2384.9,716.199 2378.5,713C 2370.83,710.968 2363.16,709.135 2355.5,707.5C 2353.59,705.298 2351.26,703.631 2348.5,702.5C 2347.31,701.636 2346.15,700.636 2345,699.5C 2342.03,693.707 2343.2,692.374 2348.5,695.5C 2347.15,696.675 2347.31,697.675 2349,698.5C 2349.64,695.888 2350.81,693.554 2352.5,691.5C 2352.29,690.914 2351.96,690.414 2351.5,690C 2353.94,689.797 2356.27,688.963 2358.5,687.5C 2359.09,687.709 2359.59,688.043 2360,688.5C 2360.29,686.956 2360.96,685.623 2362,684.5C 2363.78,687.276 2364.78,686.943 2365,683.5C 2366.05,685.107 2367.55,685.773 2369.5,685.5C 2370.14,683.54 2370.14,681.707 2369.5,680C 2371.88,679.026 2371.54,678.359 2368.5,678C 2370.79,676.123 2372.79,676.29 2374.5,678.5C 2376.3,676.533 2378.97,674.866 2382.5,673.5C 2383.09,673.709 2383.59,674.043 2384,674.5C 2384.96,673.421 2385.79,672.255 2386.5,671C 2383.96,669.901 2383.96,668.735 2386.5,667.5C 2393.69,668.106 2401.03,668.439 2408.5,668.5 Z"/></g>
<g><path style="opacity:1" fill="#806242" d="M 2355.5,707.5 C 2363.16,709.135 2370.83,710.968 2378.5,713C 2384.9,716.199 2391.23,719.365 2397.5,722.5C 2399.18,720.844 2399.85,718.177 2399.5,714.5C 2400.5,714.5 2401.5,714.5 2402.5,714.5C 2401.44,717.516 2400.27,720.516 2399,723.5C 2398.28,724.059 2397.44,724.392 2396.5,724.5C 2382.66,719.004 2368.99,713.338 2355.5,707.5 Z"/></g>
<g><path style="opacity:1" fill="#058003" d="M 937.5,747.5 C 946.309,756.382 955.142,765.382 964,774.5C 967.385,778.217 970.385,782.217 973,786.5C 973.321,819.421 973.321,853.087 973,887.5C 936.239,888.496 899.406,888.83 862.5,888.5C 862.334,897.839 862.5,907.173 863,916.5C 864.105,919.937 866.272,922.437 869.5,924C 903.167,924.333 936.833,924.667 970.5,925C 971.022,925.561 971.355,926.228 971.5,927C 966.732,944.636 961.565,962.136 956,979.5C 955.333,980.167 954.667,980.833 954,981.5C 916.887,980.279 880.221,980.279 844,981.5C 842.175,980.897 840.341,980.23 838.5,979.5C 826.965,968.067 816.131,956.067 806,943.5C 805.829,914.261 805.329,885.095 804.5,856C 804.73,835.46 804.73,814.96 804.5,794.5C 805.254,791.223 805.754,787.89 806,784.5C 817.017,772.984 827.85,761.317 838.5,749.5C 871.664,748.833 904.664,748.167 937.5,747.5 Z M 867.5,803.5 C 881.171,803.333 894.837,803.5 908.5,804C 912.232,805.629 914.399,808.462 915,812.5C 915.279,821.686 915.112,830.686 914.5,839.5C 897.167,839.5 879.833,839.5 862.5,839.5C 862.334,829.161 862.5,818.828 863,808.5C 864.366,806.638 865.866,804.972 867.5,803.5 Z"/></g>
<g><path style="opacity:1" fill="#068003" d="M 1129.5,747.5 C 1131.09,747.628 1132.42,748.295 1133.5,749.5C 1142.84,760.009 1152.34,770.343 1162,780.5C 1163.77,782.596 1165.1,784.929 1166,787.5C 1166.5,851.832 1166.67,916.166 1166.5,980.5C 1150.28,981.789 1134.11,981.789 1118,980.5C 1115.43,980.157 1114.6,978.99 1115.5,977C 1113.78,971.95 1112.45,966.783 1111.5,961.5C 1109.1,961.393 1107.26,962.393 1106,964.5C 1101.67,970.167 1097.33,975.833 1093,981.5C 1073.94,981.488 1054.94,981.488 1036,981.5C 1034.27,980.751 1032.43,980.251 1030.5,980C 1018.92,968.428 1008.09,956.262 998,943.5C 997.333,916.5 997.333,889.5 998,862.5C 1007.8,850.368 1018.63,839.201 1030.5,829C 1056.5,828.5 1082.5,828.333 1108.5,828.5C 1108.96,822.255 1108.46,815.922 1107,809.5C 1105.27,806.297 1102.6,804.297 1099,803.5C 1092.46,803.226 1085.79,803.56 1079,804.5C 1053.9,803.838 1028.73,803.171 1003.5,802.5C 1008.67,784.491 1014.34,766.658 1020.5,749C 1057,748.833 1093.34,748.333 1129.5,747.5 Z M 1059.5,879.5 C 1075.5,879.333 1091.5,879.5 1107.5,880C 1108.49,894.755 1108.82,909.588 1108.5,924.5C 1091.74,924.971 1075.07,924.471 1058.5,923C 1056.9,921.065 1055.73,918.899 1055,916.5C 1055.74,907.44 1055.57,898.773 1054.5,890.5C 1054.67,888.833 1054.83,887.167 1055,885.5C 1056.39,883.298 1057.89,881.298 1059.5,879.5 Z"/></g>
<g><path style="opacity:1" fill="#098105" d="M 1387.5,748.5 C 1406.83,748.5 1426.17,748.5 1445.5,748.5C 1446.64,803.639 1446.81,859.972 1446,917.5C 1446.88,920.102 1448.38,922.269 1450.5,924C 1466.83,924.5 1483.16,924.667 1499.5,924.5C 1499.5,865.833 1499.5,807.167 1499.5,748.5C 1518.83,748.5 1538.17,748.5 1557.5,748.5C 1557.67,841.167 1557.5,933.834 1557,1026.5C 1545.78,1039.38 1534.28,1051.88 1522.5,1064C 1485.5,1064.67 1448.5,1064.67 1411.5,1064C 1404.52,1045.91 1398.85,1027.41 1394.5,1008.5C 1427.17,1008.67 1459.84,1008.5 1492.5,1008C 1494.65,1006.85 1496.48,1005.35 1498,1003.5C 1499.07,995.884 1499.57,988.218 1499.5,980.5C 1499.65,974.002 1499.15,967.669 1498,961.5C 1491.96,967.873 1486.29,974.54 1481,981.5C 1461.71,981.64 1442.21,981.473 1422.5,981C 1415.03,972.63 1407.2,964.463 1399,956.5C 1394.51,951.524 1390.51,946.191 1387,940.5C 1386.92,880.217 1387.09,816.217 1387.5,748.5 Z"/></g>
<g><path style="opacity:1" fill="#068004" d="M 1631.5,747.5 C 1632.12,747.611 1632.62,747.944 1633,748.5C 1634.54,755.218 1636.21,761.885 1638,768.5C 1643.83,762 1649.67,755.5 1655.5,749C 1673.49,748.79 1691.15,748.29 1708.5,747.5C 1716.8,754.465 1724.8,761.798 1732.5,769.5C 1738.84,763.157 1744.84,756.491 1750.5,749.5C 1770.16,748.334 1789.82,748.167 1809.5,749C 1820.7,759.537 1831.2,770.703 1841,782.5C 1842.05,785.436 1842.88,788.436 1843.5,791.5C 1842.45,853.31 1842.45,915.643 1843.5,978.5C 1841.67,980.05 1839.5,981.05 1837,981.5C 1820.85,981.691 1804.01,981.358 1786.5,980.5C 1785.67,923.836 1785.17,867.17 1785,810.5C 1784.26,807.427 1782.43,805.26 1779.5,804C 1767.17,803.5 1754.84,803.333 1742.5,803.5C 1742.5,862.5 1742.5,921.5 1742.5,980.5C 1723.98,981.251 1705.98,981.584 1688.5,981.5C 1686.94,980.926 1685.44,980.26 1684,979.5C 1683.17,923.929 1683.34,868.429 1684.5,813C 1684.09,809.495 1682.42,806.828 1679.5,805C 1673.08,803.895 1666.58,803.395 1660,803.5C 1654.12,803.521 1648.29,803.854 1642.5,804.5C 1641.75,863.018 1641.42,921.685 1641.5,980.5C 1625.94,981.444 1610.78,981.777 1596,981.5C 1592,980.833 1588,980.167 1584,979.5C 1583.76,902.496 1583.26,825.496 1582.5,748.5C 1599.01,748.83 1615.34,748.496 1631.5,747.5 Z"/></g>
<g><path style="opacity:1" fill="#088105" d="M 1983.5,961.5 C 1983.29,959.576 1982.62,959.243 1981.5,960.5C 1976.2,966.644 1971.03,972.978 1966,979.5C 1964.6,980.227 1963.1,980.727 1961.5,981C 1941.95,981.259 1924.11,981.426 1908,981.5C 1905.93,980.736 1903.76,980.236 1901.5,980C 1889.96,967.462 1878.79,954.629 1868,941.5C 1867.83,938.667 1867.67,935.833 1867.5,933C 1867.44,909.642 1867.61,886.142 1868,862.5C 1878.26,851.734 1888.76,841.068 1899.5,830.5C 1900.31,830.192 1900.97,829.692 1901.5,829C 1927.5,828.5 1953.5,828.333 1979.5,828.5C 1979.67,822.491 1979.5,816.491 1979,810.5C 1976.96,805.96 1973.46,803.627 1968.5,803.5C 1937.8,803.653 1906.47,803.653 1874.5,803.5C 1879.87,785.222 1885.54,767.056 1891.5,749C 1903.74,748.823 1915.91,748.323 1928,747.5C 1952.11,748.543 1976.77,748.543 2002,747.5C 2015.07,759.401 2026.9,772.401 2037.5,786.5C 2037.48,850.772 2037.48,915.439 2037.5,980.5C 2020.57,980.906 2003.57,980.906 1986.5,980.5C 1985.41,974.18 1984.41,967.847 1983.5,961.5 Z M 1930.5,879.5 C 1947.17,879.5 1963.83,879.5 1980.5,879.5C 1980.5,894.5 1980.5,909.5 1980.5,924.5C 1963.83,924.667 1947.16,924.5 1930.5,924C 1928.38,922.269 1926.88,920.102 1926,917.5C 1925.12,906.117 1925.45,894.783 1927,883.5C 1928.03,881.973 1929.2,880.64 1930.5,879.5 Z"/></g>
<g><path style="opacity:1" fill="#088105" d="M 2122.5,962.5 C 2121.45,960.067 2120.79,960.067 2120.5,962.5C 2121.29,985.138 2121.63,1007.8 2121.5,1030.5C 2120.72,1035.45 2120.22,1040.45 2120,1045.5C 2101.82,1051.73 2083.66,1058.06 2065.5,1064.5C 2064.91,1064.29 2064.41,1063.96 2064,1063.5C 2063.75,1060.11 2063.25,1056.78 2062.5,1053.5C 2062.58,952.994 2062.58,851.327 2062.5,748.5C 2079.83,748.5 2097.17,748.5 2114.5,748.5C 2115.55,755.273 2117.05,761.939 2119,768.5C 2124.83,762 2130.67,755.5 2136.5,749C 2138.43,748.749 2140.27,748.249 2142,747.5C 2160.14,748.828 2178.3,748.828 2196.5,747.5C 2208.52,759.355 2220.02,771.689 2231,784.5C 2231.17,802.074 2231.67,819.574 2232.5,837C 2231.93,869.38 2231.93,901.88 2232.5,934.5C 2232.57,937.625 2232.07,940.625 2231,943.5C 2220,956.667 2208.5,969.334 2196.5,981.5C 2177.19,981.978 2157.53,981.478 2137.5,980C 2132.29,974.294 2127.29,968.461 2122.5,962.5 Z M 2121.5,803.5 C 2137.17,803.333 2152.84,803.5 2168.5,804C 2171,805.167 2172.83,807 2174,809.5C 2174.41,844.916 2174.58,879.749 2174.5,914C 2174.17,918 2172.5,921.333 2169.5,924C 2153.83,924.667 2138.17,924.667 2122.5,924C 2122,923.5 2121.5,923 2121,922.5C 2121.09,883.999 2121.26,844.333 2121.5,803.5 Z"/></g>
<g><path style="opacity:1" fill="#078004" d="M 2290.5,748.5 C 2324.83,748.333 2359.17,748.5 2393.5,749C 2404,760.833 2414.5,772.667 2425,784.5C 2425.17,809.072 2425.67,833.572 2426.5,858C 2425.68,868.018 2425.34,878.018 2425.5,888C 2388.83,888.5 2352.17,888.667 2315.5,888.5C 2315.33,897.839 2315.5,907.173 2316,916.5C 2316.61,919.548 2318.11,922.048 2320.5,924C 2354.5,924.333 2388.5,924.667 2422.5,925C 2423.08,925.893 2423.41,926.893 2423.5,928C 2418.4,945.952 2412.9,963.785 2407,981.5C 2371.82,981.496 2336.66,981.496 2301.5,981.5C 2297.53,980.803 2293.53,980.303 2289.5,980C 2279.74,967.572 2269.24,955.739 2258,944.5C 2257.42,942.351 2256.92,940.185 2256.5,938C 2257.38,893.109 2257.38,847.275 2256.5,800.5C 2257.24,795.197 2257.74,789.863 2258,784.5C 2268.67,772.331 2279.5,760.331 2290.5,748.5 Z M 2320.5,803.5 C 2335.26,803.033 2349.93,803.533 2364.5,805C 2367.67,808.138 2369.34,811.972 2369.5,816.5C 2369.72,823.769 2369.39,831.102 2368.5,838.5C 2350.84,839.666 2333.18,839.833 2315.5,839C 2314.71,829.814 2314.54,820.647 2315,811.5C 2315.49,807.854 2317.32,805.187 2320.5,803.5 Z"/></g>
<g><path style="opacity:1" fill="#058003" d="M 2483.5,748.5 C 2517.5,748.333 2551.5,748.5 2585.5,749C 2597.39,761.052 2608.72,773.552 2619.5,786.5C 2619.25,837.172 2619.25,888.505 2619.5,940.5C 2608.94,955.228 2597.11,968.894 2584,981.5C 2552.67,981.456 2521.01,981.456 2489,981.5C 2487.27,980.751 2485.43,980.251 2483.5,980C 2473.04,967.867 2462.2,956.034 2451,944.5C 2450.33,891.167 2450.33,837.833 2451,784.5C 2461.67,772.331 2472.5,760.331 2483.5,748.5 Z M 2513.5,803.5 C 2527.5,803.333 2541.5,803.5 2555.5,804C 2558.23,804.398 2560.07,805.898 2561,808.5C 2561.22,811.426 2561.72,814.26 2562.5,817C 2562.56,847.618 2562.4,879.452 2562,912.5C 2562.18,917.312 2560.34,921.145 2556.5,924C 2542.17,924.667 2527.83,924.667 2513.5,924C 2511.95,922.786 2510.78,921.286 2510,919.5C 2508.35,882.56 2508.02,845.56 2509,808.5C 2510.02,806.313 2511.52,804.646 2513.5,803.5 Z"/></g>
<g><path style="opacity:1" fill="#9eb09e" d="M 327.5,820.5 C 328.167,820.833 328.833,821.167 329.5,821.5C 328.377,822.757 327.711,822.424 327.5,820.5 Z"/></g>
<g><path style="opacity:1" fill="#038001" d="M 352.5,857.5 C 391.833,857.5 431.167,857.5 470.5,857.5C 469.502,861.658 468.002,865.658 466,869.5C 431.715,934.405 397.715,999.405 364,1064.5C 308.415,1099.71 252.915,1135.04 197.5,1170.5C 197.167,1170.17 196.833,1169.83 196.5,1169.5C 248.527,1065.45 300.527,961.447 352.5,857.5 Z"/></g>
<g><path style="opacity:1" fill="#8d6b4e" d="M 653.5,872.5 C 652.883,872.611 652.383,872.944 652,873.5C 649.147,869.765 646.313,866.098 643.5,862.5C 643.5,861.5 643.5,860.5 643.5,859.5C 607.832,859.333 572.165,859.5 536.5,860C 535.272,860.779 534.272,861.779 533.5,863C 536.709,869.917 540.042,876.75 543.5,883.5C 537.239,875.836 531.573,867.669 526.5,859C 527,858.5 527.5,858 528,857.5C 566.294,857.347 604.794,857.513 643.5,858C 647.054,862.714 650.387,867.547 653.5,872.5 Z"/></g>
<g><path style="opacity:1" fill="#7f552f" d="M 643.5,862.5 C 641.94,860.365 640.273,860.198 638.5,862C 633.037,861.913 627.87,862.746 623,864.5C 621.249,862.277 619.082,861.943 616.5,863.5C 611.847,862.761 607.181,862.094 602.5,861.5C 599.602,861.935 596.768,861.935 594,861.5C 593.055,861.905 592.388,862.572 592,863.5C 587.464,860.203 582.798,859.87 578,862.5C 575.257,862.674 572.424,862.341 569.5,861.5C 568.353,861.818 567.519,862.484 567,863.5C 565.579,860.378 563.913,860.044 562,862.5C 561.667,862.167 561.333,861.833 561,861.5C 557.162,863.167 553.329,865.001 549.5,867C 550.167,868.333 551.167,869.333 552.5,870C 551.167,870.333 549.833,870.667 548.5,871C 547.833,872.333 546.833,873.333 545.5,874C 548.977,879.75 551.311,885.917 552.5,892.5C 551.167,892.167 549.833,891.833 548.5,891.5C 546.847,888.869 545.181,886.203 543.5,883.5C 540.042,876.75 536.709,869.917 533.5,863C 534.272,861.779 535.272,860.779 536.5,860C 572.165,859.5 607.832,859.333 643.5,859.5C 643.5,860.5 643.5,861.5 643.5,862.5 Z"/></g>
<g><path style="opacity:1" fill="#7d603e" d="M 654.5,874.5 C 673.313,900.112 691.646,926.112 709.5,952.5C 708.883,952.611 708.383,952.944 708,953.5C 704.753,947.25 700.086,942.25 694,938.5C 693.64,936.392 692.973,934.392 692,932.5C 686.333,924.5 680.667,916.5 675,908.5C 673.017,907.018 671.184,905.351 669.5,903.5C 667.38,898.089 664.38,893.255 660.5,889C 658.631,884.098 656.631,879.265 654.5,874.5 Z"/></g>
<g><path style="opacity:1" fill="#816240" d="M 548.5,891.5 C 549.833,891.833 551.167,892.167 552.5,892.5C 553.145,893.812 554.145,894.812 555.5,895.5C 556.039,900.6 558.539,904.266 563,906.5C 565.223,911.712 568.223,916.379 572,920.5C 572.494,922.134 572.66,923.801 572.5,925.5C 564.512,914.204 556.512,902.871 548.5,891.5 Z"/></g>
<g><path style="opacity:1" fill="#845a2e" d="M 643.5,862.5 C 646.313,866.098 649.147,869.765 652,873.5C 652.383,872.944 652.883,872.611 653.5,872.5C 654.338,872.842 654.672,873.508 654.5,874.5C 656.631,879.265 658.631,884.098 660.5,889C 664.38,893.255 667.38,898.089 669.5,903.5C 671.184,905.351 673.017,907.018 675,908.5C 680.667,916.5 686.333,924.5 692,932.5C 692.973,934.392 693.64,936.392 694,938.5C 700.086,942.25 704.753,947.25 708,953.5C 708.383,952.944 708.883,952.611 709.5,952.5C 711.315,961.482 715.815,968.815 723,974.5C 724.439,982.606 728.272,989.106 734.5,994C 734.043,994.414 733.709,994.914 733.5,995.5C 735.75,997.763 738.083,999.763 740.5,1001.5C 740.5,1002.5 740.5,1003.5 740.5,1004.5C 741.404,1007.92 742.737,1011.09 744.5,1014C 743.572,1014.39 742.905,1015.05 742.5,1016C 743.707,1017.3 744.374,1018.8 744.5,1020.5C 741.881,1020.23 739.381,1020.56 737,1021.5C 736.195,1019.1 735.362,1019.27 734.5,1022C 735.345,1023.56 734.679,1024.56 732.5,1025C 733.308,1025.31 733.975,1025.81 734.5,1026.5C 733.397,1027 732.397,1027.33 731.5,1027.5C 732.025,1028.19 732.692,1028.69 733.5,1029C 731.893,1030.05 731.227,1031.55 731.5,1033.5C 735.789,1033.74 736.456,1035.41 733.5,1038.5C 732.635,1039.58 731.635,1039.75 730.5,1039C 730.665,1037.88 730.998,1036.72 731.5,1035.5C 730.332,1033.6 728.665,1033.44 726.5,1035C 722.854,1036.46 721.521,1038.96 722.5,1042.5C 719.972,1045.04 716.972,1045.87 713.5,1045C 712.747,1043.51 711.914,1043.35 711,1044.5C 710.5,1043.33 709.667,1042.5 708.5,1042C 703.093,1041.45 697.76,1041.95 692.5,1043.5C 692.709,1044.09 693.043,1044.59 693.5,1045C 692.141,1046.2 691.141,1047.7 690.5,1049.5C 688.689,1048.26 686.856,1048.26 685,1049.5C 684.5,1049.33 684,1049.17 683.5,1049C 687.094,1047.74 689.761,1045.41 691.5,1042C 691.333,1041.5 691.167,1041 691,1040.5C 689.333,1042.5 687.667,1044.5 686,1046.5C 685.517,1045.55 685.351,1044.55 685.5,1043.5C 682.203,1043.33 681.869,1044 684.5,1045.5C 683.316,1047.05 682.316,1048.71 681.5,1050.5C 680.167,1047.83 678.833,1047.83 677.5,1050.5C 676.524,1048.88 677.024,1047.54 679,1046.5C 680.073,1047.28 681.24,1047.11 682.5,1046C 679.727,1044.11 679.394,1042.11 681.5,1040C 681.167,1039.83 680.833,1039.67 680.5,1039.5C 678.785,1041.71 676.619,1043.38 674,1044.5C 671.641,1041.88 671.975,1041.21 675,1042.5C 675.5,1042 676,1041.5 676.5,1041C 673.658,1038.33 671.491,1039.16 670,1043.5C 669,1041.83 667.667,1040.5 666,1039.5C 665.801,1041.4 664.967,1042.9 663.5,1044C 664.517,1045.05 664.684,1046.22 664,1047.5C 662.73,1045.42 661.23,1045.09 659.5,1046.5C 655.758,1043.72 653.424,1040.05 652.5,1035.5C 646.97,1032.56 643.47,1027.89 642,1021.5C 637.598,1017.7 634.431,1013.04 632.5,1007.5C 628.764,1005.65 626.597,1002.65 626,998.5C 619.069,994.367 616.402,988.367 618,980.5C 617.667,980.833 617.333,981.167 617,981.5C 614.957,978.242 612.79,975.409 610.5,973C 608.671,972.727 607.171,971.893 606,970.5C 605.667,970.833 605.333,971.167 605,971.5C 604.358,966.847 601.858,963.847 597.5,962.5C 599.056,959.261 598.056,956.928 594.5,955.5C 590.78,948.334 586.78,941.001 582.5,933.5C 579.536,931.553 576.536,929.553 573.5,927.5C 572.662,927.158 572.328,926.492 572.5,925.5C 572.66,923.801 572.494,922.134 572,920.5C 568.223,916.379 565.223,911.712 563,906.5C 558.539,904.266 556.039,900.6 555.5,895.5C 554.145,894.812 553.145,893.812 552.5,892.5C 551.311,885.917 548.977,879.75 545.5,874C 546.833,873.333 547.833,872.333 548.5,871C 549.833,870.667 551.167,870.333 552.5,870C 551.167,869.333 550.167,868.333 549.5,867C 553.329,865.001 557.162,863.167 561,861.5C 561.333,861.833 561.667,862.167 562,862.5C 563.913,860.044 565.579,860.378 567,863.5C 567.519,862.484 568.353,861.818 569.5,861.5C 572.424,862.341 575.257,862.674 578,862.5C 582.798,859.87 587.464,860.203 592,863.5C 592.388,862.572 593.055,861.905 594,861.5C 596.768,861.935 599.602,861.935 602.5,861.5C 607.181,862.094 611.847,862.761 616.5,863.5C 619.082,861.943 621.249,862.277 623,864.5C 627.87,862.746 633.037,861.913 638.5,862C 640.273,860.198 641.94,860.365 643.5,862.5 Z"/></g>
<g><path style="opacity:1" fill="#806241" d="M 573.5,927.5 C 576.536,929.553 579.536,931.553 582.5,933.5C 586.78,941.001 590.78,948.334 594.5,955.5C 598.056,956.928 599.056,959.261 597.5,962.5C 589.266,951.044 581.266,939.378 573.5,927.5 Z"/></g>
<g><path style="opacity:1" fill="#92c29b" d="M 1981.5,960.5 C 1982.62,959.243 1983.29,959.576 1983.5,961.5C 1982.83,961.167 1982.17,960.833 1981.5,960.5 Z"/></g>
<g><path style="opacity:1" fill="#93c69d" d="M 2122.5,962.5 C 2121.83,962.5 2121.17,962.5 2120.5,962.5C 2120.79,960.067 2121.45,960.067 2122.5,962.5 Z"/></g>
<g><path style="opacity:1" fill="#83603b" d="M 709.5,952.5 C 715.57,959.635 720.903,967.301 725.5,975.5C 725.338,977.527 725.505,979.527 726,981.5C 729,983.167 731.333,985.5 733,988.5C 735.983,992.691 738.483,997.024 740.5,1001.5C 738.083,999.763 735.75,997.763 733.5,995.5C 733.709,994.914 734.043,994.414 734.5,994C 728.272,989.106 724.439,982.606 723,974.5C 715.815,968.815 711.315,961.482 709.5,952.5 Z"/></g>
<g><path style="opacity:1" fill="#7d603f" d="M 597.5,962.5 C 601.858,963.847 604.358,966.847 605,971.5C 605.333,971.167 605.667,970.833 606,970.5C 607.171,971.893 608.671,972.727 610.5,973C 612.79,975.409 614.957,978.242 617,981.5C 617.333,981.167 617.667,980.833 618,980.5C 616.402,988.367 619.069,994.367 626,998.5C 626.597,1002.65 628.764,1005.65 632.5,1007.5C 634.431,1013.04 637.598,1017.7 642,1021.5C 643.47,1027.89 646.97,1032.56 652.5,1035.5C 653.424,1040.05 655.758,1043.72 659.5,1046.5C 660.775,1050.14 662.108,1053.8 663.5,1057.5C 641.266,1026.05 619.266,994.378 597.5,962.5 Z"/></g>
<g><path style="opacity:1" fill="#795936" d="M 865.5,1043.5 C 864.772,1040.92 864.272,1038.25 864,1035.5C 854.306,1039.06 844.472,1042.56 834.5,1046C 830.5,1048 826.5,1050 822.5,1052C 821.243,1055.61 818.91,1057.11 815.5,1056.5C 814.145,1057.19 813.145,1058.19 812.5,1059.5C 805.182,1061.8 797.849,1064.14 790.5,1066.5C 812.182,1054.99 834.182,1043.99 856.5,1033.5C 860.151,1032.09 863.817,1031.42 867.5,1031.5C 868.952,1035.95 868.285,1039.95 865.5,1043.5 Z"/></g>
<g><path style="opacity:1" fill="#81582d" d="M 740.5,1004.5 C 743.825,1006.17 746.158,1008.83 747.5,1012.5C 748.748,1013.04 749.915,1013.71 751,1014.5C 752.818,1020.13 755.151,1025.46 758,1030.5C 761.145,1033.02 763.645,1036.02 765.5,1039.5C 763.914,1040.15 762.247,1040.65 760.5,1041C 761.833,1041.67 761.833,1042.33 760.5,1043C 758.19,1043.5 755.857,1043.66 753.5,1043.5C 753.66,1045.2 753.494,1046.87 753,1048.5C 751.615,1049.55 750.615,1050.88 750,1052.5C 748.301,1051.59 746.467,1051.26 744.5,1051.5C 744.238,1052.98 744.571,1054.31 745.5,1055.5C 751.592,1057.88 752.592,1061.38 748.5,1066C 747.258,1066.31 746.258,1065.81 745.5,1064.5C 744.033,1064.72 742.533,1065.06 741,1065.5C 740.25,1064.87 739.416,1064.37 738.5,1064C 739.336,1062.76 739.003,1061.59 737.5,1060.5C 733.944,1062.12 730.944,1061.46 728.5,1058.5C 729.04,1057.25 729.707,1056.09 730.5,1055C 728.479,1054.49 726.979,1053.32 726,1051.5C 725.257,1053.44 725.424,1055.27 726.5,1057C 725.638,1059.73 724.805,1059.9 724,1057.5C 723.085,1058.33 722.419,1059.33 722,1060.5C 721.282,1059.55 720.449,1059.38 719.5,1060C 717.825,1061.71 716.158,1063.38 714.5,1065C 712.559,1065.74 710.726,1065.58 709,1064.5C 707.983,1067.03 706.816,1067.03 705.5,1064.5C 704.281,1065.26 703.281,1066.26 702.5,1067.5C 701.808,1066.97 701.308,1066.31 701,1065.5C 699.912,1068.99 698.745,1069.16 697.5,1066C 695.414,1065.37 695.081,1065.87 696.5,1067.5C 695.91,1068.8 694.91,1069.63 693.5,1070C 693.833,1071 694.167,1072 694.5,1073C 693.061,1073.99 692.061,1075.32 691.5,1077C 690.5,1077.33 689.5,1077.67 688.5,1078C 690.273,1082.51 688.939,1084.51 684.5,1084C 683.228,1085.31 682.228,1086.81 681.5,1088.5C 681.167,1087.83 680.833,1087.17 680.5,1086.5C 678.435,1086.95 676.768,1087.95 675.5,1089.5C 676.631,1090.6 677.465,1090.27 678,1088.5C 678.595,1089.9 678.428,1091.23 677.5,1092.5C 679.046,1093.68 680.713,1094.68 682.5,1095.5C 680.595,1098.65 678.428,1098.98 676,1096.5C 675.228,1096.64 674.561,1096.98 674,1097.5C 673.692,1096.69 673.192,1096.03 672.5,1095.5C 671.604,1098.14 670.771,1100.81 670,1103.5C 669.333,1100.83 668.667,1100.83 668,1103.5C 665.923,1098.5 664.423,1098.5 663.5,1103.5C 664.5,1103.5 665.5,1103.5 666.5,1103.5C 666.587,1106.6 666.087,1106.93 665,1104.5C 664.727,1106.33 663.893,1107.83 662.5,1109C 663.654,1109.91 663.487,1110.75 662,1111.5C 660.187,1110.39 659.354,1111.06 659.5,1113.5C 664.532,1113.33 664.699,1114.33 660,1116.5C 658.667,1114.83 657.333,1113.17 656,1111.5C 655.257,1113.64 654.424,1113.81 653.5,1112C 654.032,1109.98 655.365,1109.15 657.5,1109.5C 657.819,1107.25 657.319,1105.25 656,1103.5C 655.517,1104.45 655.351,1105.45 655.5,1106.5C 651.237,1108.65 648.07,1107.65 646,1103.5C 643.984,1104.96 643.151,1106.96 643.5,1109.5C 641.61,1109.3 640.11,1109.96 639,1111.5C 636.777,1111.11 634.611,1110.77 632.5,1110.5C 630.602,1107.7 628.102,1107.04 625,1108.5C 621.396,1107.16 617.896,1105.66 614.5,1104C 612.527,1103.5 610.527,1103.34 608.5,1103.5C 607.391,1103.44 606.391,1103.11 605.5,1102.5C 605.611,1101.88 605.944,1101.38 606.5,1101C 602.935,1099.39 599.602,1097.56 596.5,1095.5C 596.369,1094.62 596.702,1093.96 597.5,1093.5C 602.178,1095.49 606.678,1095.49 611,1093.5C 612.226,1093.64 613.393,1093.98 614.5,1094.5C 616.894,1092.93 619.394,1091.6 622,1090.5C 623.242,1091.87 624.742,1092.87 626.5,1093.5C 627.833,1091.83 629.167,1090.17 630.5,1088.5C 632.398,1089.73 634.065,1089.4 635.5,1087.5C 634.619,1086.03 633.286,1085.2 631.5,1085C 634.763,1084.13 635.096,1082.8 632.5,1081C 628.545,1080.89 624.545,1080.22 620.5,1079C 623.036,1078.81 625.369,1078.31 627.5,1077.5C 629.92,1077.29 632.253,1077.63 634.5,1078.5C 636.002,1077.92 637.335,1077.08 638.5,1076C 647.832,1076.16 656.832,1074.99 665.5,1072.5C 668.247,1072.81 670.914,1072.48 673.5,1071.5C 673.145,1070.48 672.478,1069.81 671.5,1069.5C 668.327,1065.82 665.66,1061.82 663.5,1057.5C 662.108,1053.8 660.775,1050.14 659.5,1046.5C 661.23,1045.09 662.73,1045.42 664,1047.5C 664.684,1046.22 664.517,1045.05 663.5,1044C 664.967,1042.9 665.801,1041.4 666,1039.5C 667.667,1040.5 669,1041.83 670,1043.5C 671.491,1039.16 673.658,1038.33 676.5,1041C 676,1041.5 675.5,1042 675,1042.5C 671.975,1041.21 671.641,1041.88 674,1044.5C 676.619,1043.38 678.785,1041.71 680.5,1039.5C 680.833,1039.67 681.167,1039.83 681.5,1040C 679.394,1042.11 679.727,1044.11 682.5,1046C 681.24,1047.11 680.073,1047.28 679,1046.5C 677.024,1047.54 676.524,1048.88 677.5,1050.5C 678.833,1047.83 680.167,1047.83 681.5,1050.5C 682.316,1048.71 683.316,1047.05 684.5,1045.5C 681.869,1044 682.203,1043.33 685.5,1043.5C 685.351,1044.55 685.517,1045.55 686,1046.5C 687.667,1044.5 689.333,1042.5 691,1040.5C 691.167,1041 691.333,1041.5 691.5,1042C 689.761,1045.41 687.094,1047.74 683.5,1049C 684,1049.17 684.5,1049.33 685,1049.5C 686.856,1048.26 688.689,1048.26 690.5,1049.5C 691.141,1047.7 692.141,1046.2 693.5,1045C 693.043,1044.59 692.709,1044.09 692.5,1043.5C 697.76,1041.95 703.093,1041.45 708.5,1042C 709.667,1042.5 710.5,1043.33 711,1044.5C 711.914,1043.35 712.747,1043.51 713.5,1045C 716.972,1045.87 719.972,1045.04 722.5,1042.5C 721.521,1038.96 722.854,1036.46 726.5,1035C 728.665,1033.44 730.332,1033.6 731.5,1035.5C 730.998,1036.72 730.665,1037.88 730.5,1039C 731.635,1039.75 732.635,1039.58 733.5,1038.5C 736.456,1035.41 735.789,1033.74 731.5,1033.5C 731.227,1031.55 731.893,1030.05 733.5,1029C 732.692,1028.69 732.025,1028.19 731.5,1027.5C 732.397,1027.33 733.397,1027 734.5,1026.5C 733.975,1025.81 733.308,1025.31 732.5,1025C 734.679,1024.56 735.345,1023.56 734.5,1022C 735.362,1019.27 736.195,1019.1 737,1021.5C 739.381,1020.56 741.881,1020.23 744.5,1020.5C 744.374,1018.8 743.707,1017.3 742.5,1016C 742.905,1015.05 743.572,1014.39 744.5,1014C 742.737,1011.09 741.404,1007.92 740.5,1004.5 Z"/></g>
<g><path style="opacity:1" fill="#816241" d="M 725.5,975.5 C 747.559,1005.27 768.892,1035.6 789.5,1066.5C 788.265,1066.28 787.265,1065.61 786.5,1064.5C 785.833,1065.17 785.167,1065.83 784.5,1066.5C 782.24,1061.64 779.24,1057.31 775.5,1053.5C 774.675,1052.61 773.675,1052.28 772.5,1052.5C 772.037,1049.52 771.704,1046.52 771.5,1043.5C 770.5,1043.5 769.5,1043.5 768.5,1043.5C 768.912,1041.03 767.912,1039.69 765.5,1039.5C 763.645,1036.02 761.145,1033.02 758,1030.5C 755.151,1025.46 752.818,1020.13 751,1014.5C 749.915,1013.71 748.748,1013.04 747.5,1012.5C 746.158,1008.83 743.825,1006.17 740.5,1004.5C 740.5,1003.5 740.5,1002.5 740.5,1001.5C 738.483,997.024 735.983,992.691 733,988.5C 731.333,985.5 729,983.167 726,981.5C 725.505,979.527 725.338,977.527 725.5,975.5 Z"/></g>
<g><path style="opacity:1" fill="#7f562b" d="M 865.5,1043.5 C 862.557,1054 859.223,1064.33 855.5,1074.5C 853.394,1074.68 851.728,1075.68 850.5,1077.5C 851.357,1080.45 851.357,1083.45 850.5,1086.5C 848.98,1084.11 847.98,1081.44 847.5,1078.5C 846.448,1078.65 845.448,1078.48 844.5,1078C 844.833,1077.67 845.167,1077.33 845.5,1077C 843.939,1076.68 842.772,1075.85 842,1074.5C 841.586,1074.96 841.086,1075.29 840.5,1075.5C 838.606,1073.54 835.939,1072.2 832.5,1071.5C 830.997,1070.41 830.664,1069.24 831.5,1068C 829.671,1067.73 828.171,1066.89 827,1065.5C 826.667,1065.83 826.333,1066.17 826,1066.5C 825.667,1065.17 825.333,1063.83 825,1062.5C 824.439,1063.02 823.772,1063.36 823,1063.5C 821.606,1062.39 820.439,1061.05 819.5,1059.5C 818.522,1059.98 817.689,1060.64 817,1061.5C 816.667,1060.83 816.333,1060.17 816,1059.5C 815.014,1060.17 813.847,1060.17 812.5,1059.5C 813.145,1058.19 814.145,1057.19 815.5,1056.5C 818.91,1057.11 821.243,1055.61 822.5,1052C 826.5,1050 830.5,1048 834.5,1046C 844.472,1042.56 854.306,1039.06 864,1035.5C 864.272,1038.25 864.772,1040.92 865.5,1043.5 Z"/></g>
<g><path style="opacity:1" fill="#ad9572" d="M 671.5,1069.5 C 672.478,1069.81 673.145,1070.48 673.5,1071.5C 670.914,1072.48 668.247,1072.81 665.5,1072.5C 663.833,1072.5 662.167,1072.5 660.5,1072.5C 664.442,1072.13 668.109,1071.13 671.5,1069.5 Z"/></g>
<g><path style="opacity:1" fill="#786043" d="M 849.5,1095.5 C 848.887,1092.52 849.22,1089.52 850.5,1086.5C 851.357,1083.45 851.357,1080.45 850.5,1077.5C 851.728,1075.68 853.394,1074.68 855.5,1074.5C 859.223,1064.33 862.557,1054 865.5,1043.5C 868.285,1039.95 868.952,1035.95 867.5,1031.5C 863.817,1031.42 860.151,1032.09 856.5,1033.5C 861.949,1029.61 867.949,1027.11 874.5,1026C 866.437,1049.36 858.104,1072.53 849.5,1095.5 Z"/></g>
<g><path style="opacity:1" fill="#765c38" d="M 660.5,1072.5 C 662.167,1072.5 663.833,1072.5 665.5,1072.5C 656.832,1074.99 647.832,1076.16 638.5,1076C 637.335,1077.08 636.002,1077.92 634.5,1078.5C 632.253,1077.63 629.92,1077.29 627.5,1077.5C 609.495,1076.74 591.662,1078.07 574,1081.5C 572.624,1081.68 571.791,1082.35 571.5,1083.5C 570.761,1083.63 570.094,1083.46 569.5,1083C 570.293,1081.91 570.96,1080.75 571.5,1079.5C 575.982,1078.83 580.316,1078.17 584.5,1077.5C 609.805,1075.48 635.139,1073.81 660.5,1072.5 Z"/></g>
<g><path style="opacity:1" fill="#7c6345" d="M 584.5,1077.5 C 580.316,1078.17 575.982,1078.83 571.5,1079.5C 570.96,1080.75 570.293,1081.91 569.5,1083C 570.094,1083.46 570.761,1083.63 571.5,1083.5C 577.5,1085.39 582.833,1088.39 587.5,1092.5C 590.418,1093.87 593.418,1094.87 596.5,1095.5C 599.602,1097.56 602.935,1099.39 606.5,1101C 605.944,1101.38 605.611,1101.88 605.5,1102.5C 588.555,1095.36 571.888,1087.69 555.5,1079.5C 565.105,1077.97 574.771,1077.31 584.5,1077.5 Z"/></g>
<g><path style="opacity:1" fill="#845829" d="M 627.5,1077.5 C 625.369,1078.31 623.036,1078.81 620.5,1079C 624.545,1080.22 628.545,1080.89 632.5,1081C 635.096,1082.8 634.763,1084.13 631.5,1085C 633.286,1085.2 634.619,1086.03 635.5,1087.5C 634.065,1089.4 632.398,1089.73 630.5,1088.5C 629.167,1090.17 627.833,1091.83 626.5,1093.5C 624.742,1092.87 623.242,1091.87 622,1090.5C 619.394,1091.6 616.894,1092.93 614.5,1094.5C 613.393,1093.98 612.226,1093.64 611,1093.5C 606.678,1095.49 602.178,1095.49 597.5,1093.5C 596.702,1093.96 596.369,1094.62 596.5,1095.5C 593.418,1094.87 590.418,1093.87 587.5,1092.5C 582.833,1088.39 577.5,1085.39 571.5,1083.5C 571.791,1082.35 572.624,1081.68 574,1081.5C 591.662,1078.07 609.495,1076.74 627.5,1077.5 Z"/></g>
<g><path style="opacity:1" fill="#845b2e" d="M 765.5,1039.5 C 767.912,1039.69 768.912,1041.03 768.5,1043.5C 769.5,1043.5 770.5,1043.5 771.5,1043.5C 771.704,1046.52 772.037,1049.52 772.5,1052.5C 773.675,1052.28 774.675,1052.61 775.5,1053.5C 779.24,1057.31 782.24,1061.64 784.5,1066.5C 785.167,1065.83 785.833,1065.17 786.5,1064.5C 787.265,1065.61 788.265,1066.28 789.5,1066.5C 789.833,1066.5 790.167,1066.5 790.5,1066.5C 797.849,1064.14 805.182,1061.8 812.5,1059.5C 813.847,1060.17 815.014,1060.17 816,1059.5C 816.333,1060.17 816.667,1060.83 817,1061.5C 817.689,1060.64 818.522,1059.98 819.5,1059.5C 820.439,1061.05 821.606,1062.39 823,1063.5C 823.772,1063.36 824.439,1063.02 825,1062.5C 825.333,1063.83 825.667,1065.17 826,1066.5C 826.333,1066.17 826.667,1065.83 827,1065.5C 828.171,1066.89 829.671,1067.73 831.5,1068C 830.664,1069.24 830.997,1070.41 832.5,1071.5C 835.939,1072.2 838.606,1073.54 840.5,1075.5C 841.086,1075.29 841.586,1074.96 842,1074.5C 842.772,1075.85 843.939,1076.68 845.5,1077C 845.167,1077.33 844.833,1077.67 844.5,1078C 845.448,1078.48 846.448,1078.65 847.5,1078.5C 847.98,1081.44 848.98,1084.11 850.5,1086.5C 849.22,1089.52 848.887,1092.52 849.5,1095.5C 849.5,1095.83 849.5,1096.17 849.5,1096.5C 848.265,1096.72 847.265,1097.39 846.5,1098.5C 844.405,1103.7 842.572,1109.04 841,1114.5C 839.951,1112.89 838.451,1112.23 836.5,1112.5C 836.274,1115.25 836.607,1117.92 837.5,1120.5C 834.682,1125.74 832.849,1131.07 832,1136.5C 830.647,1137.69 829.48,1139.02 828.5,1140.5C 827.079,1146.02 826.079,1151.52 825.5,1157C 825.645,1157.77 825.978,1158.44 826.5,1159C 824.981,1160.22 823.814,1161.72 823,1163.5C 820.949,1169.02 819.783,1174.69 819.5,1180.5C 818.624,1180.37 817.957,1180.7 817.5,1181.5C 816.688,1185.47 814.855,1188.8 812,1191.5C 810.982,1189.44 809.649,1189.1 808,1190.5C 802.535,1188.59 797.035,1187.26 791.5,1186.5C 788.64,1183.38 785.307,1180.72 781.5,1178.5C 775.362,1176.66 769.695,1173.99 764.5,1170.5C 767.861,1170.96 771.195,1171.13 774.5,1171C 777.093,1168.44 779.259,1164.94 781,1160.5C 783.025,1162.73 785.358,1163.06 788,1161.5C 788.98,1162.98 790.147,1164.31 791.5,1165.5C 793.385,1164.39 795.385,1163.56 797.5,1163C 796.253,1161.51 796.253,1160.01 797.5,1158.5C 798.833,1158.83 800.167,1159.17 801.5,1159.5C 803.14,1157.16 805.14,1156.33 807.5,1157C 808.167,1155.67 809.167,1154.67 810.5,1154C 809.054,1151.51 809.721,1149.67 812.5,1148.5C 813.696,1148.85 813.696,1149.35 812.5,1150C 813.167,1150.17 813.833,1150.33 814.5,1150.5C 816.105,1149.57 817.605,1149.57 819,1150.5C 819.333,1149.83 819.667,1149.17 820,1148.5C 820.333,1149.83 820.667,1151.17 821,1152.5C 821.699,1148.03 822.866,1143.7 824.5,1139.5C 823.5,1138.83 822.5,1138.17 821.5,1137.5C 822.891,1137.89 823.891,1137.06 824.5,1135C 823.941,1134.28 823.608,1133.44 823.5,1132.5C 824.426,1128.87 825.093,1125.2 825.5,1121.5C 823.396,1121.8 821.396,1121.47 819.5,1120.5C 819.709,1119.91 820.043,1119.41 820.5,1119C 818.392,1118.64 816.392,1117.97 814.5,1117C 815.34,1115.33 814.84,1115.17 813,1116.5C 812.02,1114.74 811.353,1113.07 811,1111.5C 809.057,1113.72 807.391,1113.72 806,1111.5C 805.692,1112.31 805.192,1112.97 804.5,1113.5C 803.205,1112.9 801.872,1112.4 800.5,1112C 799.167,1111 799.167,1110 800.5,1109C 797.909,1108.64 795.576,1109.31 793.5,1111C 794.449,1111.62 795.282,1111.45 796,1110.5C 799.432,1113.03 799.265,1113.7 795.5,1112.5C 794.289,1113.27 794.289,1114.11 795.5,1115C 794.551,1115.62 793.718,1115.45 793,1114.5C 792,1116.17 790.667,1117.5 789,1118.5C 788.641,1115.46 787.974,1115.12 787,1117.5C 786.111,1116.11 785.611,1116.28 785.5,1118C 785.905,1118.95 786.572,1119.61 787.5,1120C 786.391,1120.64 785.225,1121.14 784,1121.5C 782.403,1120.12 780.57,1119.45 778.5,1119.5C 778.716,1117.32 777.883,1115.65 776,1114.5C 774.693,1115.77 773.193,1116.77 771.5,1117.5C 772.711,1118.72 772.711,1119.89 771.5,1121C 772.5,1121.83 773.5,1122.67 774.5,1123.5C 773.726,1124.71 772.893,1124.71 772,1123.5C 771.667,1124.17 771.333,1124.83 771,1125.5C 768.614,1123.91 765.947,1122.91 763,1122.5C 760.988,1124.68 759.155,1127.01 757.5,1129.5C 756.016,1127.93 754.349,1126.59 752.5,1125.5C 751.004,1129.34 750.004,1129.34 749.5,1125.5C 748.127,1125.34 746.793,1125.51 745.5,1126C 746.406,1128.45 747.239,1130.95 748,1133.5C 748.333,1133.17 748.667,1132.83 749,1132.5C 749.635,1133.97 750.469,1135.3 751.5,1136.5C 748.384,1137.78 745.384,1139.62 742.5,1142C 744.236,1144.28 746.236,1144.78 748.5,1143.5C 750.122,1144.93 751.455,1146.6 752.5,1148.5C 753.086,1148.29 753.586,1147.96 754,1147.5C 755.368,1149.03 755.868,1150.53 755.5,1152C 754.324,1153.91 753.324,1153.75 752.5,1151.5C 751.833,1151.83 751.167,1152.17 750.5,1152.5C 749.304,1152.15 749.304,1151.65 750.5,1151C 749.552,1150.52 748.552,1150.35 747.5,1150.5C 746.783,1153.32 745.783,1155.99 744.5,1158.5C 740.965,1157.99 737.632,1157.99 734.5,1158.5C 732.833,1158.5 731.167,1158.5 729.5,1158.5C 725.503,1157.4 721.836,1155.73 718.5,1153.5C 715.566,1149.72 712.399,1146.06 709,1142.5C 706.263,1143.61 703.429,1143.78 700.5,1143C 695.223,1141.2 690.057,1139.04 685,1136.5C 684.235,1136.57 683.735,1136.9 683.5,1137.5C 683.167,1137.5 682.833,1137.5 682.5,1137.5C 682.306,1135.09 680.973,1134.09 678.5,1134.5C 678.709,1132.29 677.876,1130.62 676,1129.5C 666.904,1126.93 658.404,1123.1 650.5,1118C 646.45,1117.21 642.45,1116.21 638.5,1115C 635.896,1114.21 633.896,1112.71 632.5,1110.5C 634.611,1110.77 636.777,1111.11 639,1111.5C 640.11,1109.96 641.61,1109.3 643.5,1109.5C 643.151,1106.96 643.984,1104.96 646,1103.5C 648.07,1107.65 651.237,1108.65 655.5,1106.5C 655.351,1105.45 655.517,1104.45 656,1103.5C 657.319,1105.25 657.819,1107.25 657.5,1109.5C 655.365,1109.15 654.032,1109.98 653.5,1112C 654.424,1113.81 655.257,1113.64 656,1111.5C 657.333,1113.17 658.667,1114.83 660,1116.5C 664.699,1114.33 664.532,1113.33 659.5,1113.5C 659.354,1111.06 660.187,1110.39 662,1111.5C 663.487,1110.75 663.654,1109.91 662.5,1109C 663.893,1107.83 664.727,1106.33 665,1104.5C 666.087,1106.93 666.587,1106.6 666.5,1103.5C 665.5,1103.5 664.5,1103.5 663.5,1103.5C 664.423,1098.5 665.923,1098.5 668,1103.5C 668.667,1100.83 669.333,1100.83 670,1103.5C 670.771,1100.81 671.604,1098.14 672.5,1095.5C 673.192,1096.03 673.692,1096.69 674,1097.5C 674.561,1096.98 675.228,1096.64 676,1096.5C 678.428,1098.98 680.595,1098.65 682.5,1095.5C 680.713,1094.68 679.046,1093.68 677.5,1092.5C 678.428,1091.23 678.595,1089.9 678,1088.5C 677.465,1090.27 676.631,1090.6 675.5,1089.5C 676.768,1087.95 678.435,1086.95 680.5,1086.5C 680.833,1087.17 681.167,1087.83 681.5,1088.5C 682.228,1086.81 683.228,1085.31 684.5,1084C 688.939,1084.51 690.273,1082.51 688.5,1078C 689.5,1077.67 690.5,1077.33 691.5,1077C 692.061,1075.32 693.061,1073.99 694.5,1073C 694.167,1072 693.833,1071 693.5,1070C 694.91,1069.63 695.91,1068.8 696.5,1067.5C 695.081,1065.87 695.414,1065.37 697.5,1066C 698.745,1069.16 699.912,1068.99 701,1065.5C 701.308,1066.31 701.808,1066.97 702.5,1067.5C 703.281,1066.26 704.281,1065.26 705.5,1064.5C 706.816,1067.03 707.983,1067.03 709,1064.5C 710.726,1065.58 712.559,1065.74 714.5,1065C 716.158,1063.38 717.825,1061.71 719.5,1060C 720.449,1059.38 721.282,1059.55 722,1060.5C 722.419,1059.33 723.085,1058.33 724,1057.5C 724.805,1059.9 725.638,1059.73 726.5,1057C 725.424,1055.27 725.257,1053.44 726,1051.5C 726.979,1053.32 728.479,1054.49 730.5,1055C 729.707,1056.09 729.04,1057.25 728.5,1058.5C 730.944,1061.46 733.944,1062.12 737.5,1060.5C 739.003,1061.59 739.336,1062.76 738.5,1064C 739.416,1064.37 740.25,1064.87 741,1065.5C 742.533,1065.06 744.033,1064.72 745.5,1064.5C 746.258,1065.81 747.258,1066.31 748.5,1066C 752.592,1061.38 751.592,1057.88 745.5,1055.5C 744.571,1054.31 744.238,1052.98 744.5,1051.5C 746.467,1051.26 748.301,1051.59 750,1052.5C 750.615,1050.88 751.615,1049.55 753,1048.5C 753.494,1046.87 753.66,1045.2 753.5,1043.5C 755.857,1043.66 758.19,1043.5 760.5,1043C 761.833,1042.33 761.833,1041.67 760.5,1041C 762.247,1040.65 763.914,1040.15 765.5,1039.5 Z"/></g>
<g><path style="opacity:1" fill="#7e613c" d="M 608.5,1103.5 C 610.527,1103.34 612.527,1103.5 614.5,1104C 617.896,1105.66 621.396,1107.16 625,1108.5C 628.102,1107.04 630.602,1107.7 632.5,1110.5C 633.896,1112.71 635.896,1114.21 638.5,1115C 642.45,1116.21 646.45,1117.21 650.5,1118C 658.404,1123.1 666.904,1126.93 676,1129.5C 677.876,1130.62 678.709,1132.29 678.5,1134.5C 680.973,1134.09 682.306,1135.09 682.5,1137.5C 657.556,1126.69 632.889,1115.36 608.5,1103.5 Z"/></g>
<g><path style="opacity:1" fill="#865d2f" d="M 764.5,1170.5 C 760.723,1168.72 756.723,1167.55 752.5,1167C 746.777,1163.3 740.777,1160.47 734.5,1158.5C 737.632,1157.99 740.965,1157.99 744.5,1158.5C 745.783,1155.99 746.783,1153.32 747.5,1150.5C 748.552,1150.35 749.552,1150.52 750.5,1151C 749.304,1151.65 749.304,1152.15 750.5,1152.5C 751.167,1152.17 751.833,1151.83 752.5,1151.5C 753.324,1153.75 754.324,1153.91 755.5,1152C 755.868,1150.53 755.368,1149.03 754,1147.5C 753.586,1147.96 753.086,1148.29 752.5,1148.5C 751.455,1146.6 750.122,1144.93 748.5,1143.5C 746.236,1144.78 744.236,1144.28 742.5,1142C 745.384,1139.62 748.384,1137.78 751.5,1136.5C 750.469,1135.3 749.635,1133.97 749,1132.5C 748.667,1132.83 748.333,1133.17 748,1133.5C 747.239,1130.95 746.406,1128.45 745.5,1126C 746.793,1125.51 748.127,1125.34 749.5,1125.5C 750.004,1129.34 751.004,1129.34 752.5,1125.5C 754.349,1126.59 756.016,1127.93 757.5,1129.5C 759.155,1127.01 760.988,1124.68 763,1122.5C 765.947,1122.91 768.614,1123.91 771,1125.5C 771.333,1124.83 771.667,1124.17 772,1123.5C 772.893,1124.71 773.726,1124.71 774.5,1123.5C 773.5,1122.67 772.5,1121.83 771.5,1121C 772.711,1119.89 772.711,1118.72 771.5,1117.5C 773.193,1116.77 774.693,1115.77 776,1114.5C 777.883,1115.65 778.716,1117.32 778.5,1119.5C 780.57,1119.45 782.403,1120.12 784,1121.5C 785.225,1121.14 786.391,1120.64 787.5,1120C 786.572,1119.61 785.905,1118.95 785.5,1118C 785.611,1116.28 786.111,1116.11 787,1117.5C 787.974,1115.12 788.641,1115.46 789,1118.5C 790.667,1117.5 792,1116.17 793,1114.5C 793.718,1115.45 794.551,1115.62 795.5,1115C 794.289,1114.11 794.289,1113.27 795.5,1112.5C 799.265,1113.7 799.432,1113.03 796,1110.5C 795.282,1111.45 794.449,1111.62 793.5,1111C 795.576,1109.31 797.909,1108.64 800.5,1109C 799.167,1110 799.167,1111 800.5,1112C 801.872,1112.4 803.205,1112.9 804.5,1113.5C 805.192,1112.97 805.692,1112.31 806,1111.5C 807.391,1113.72 809.057,1113.72 811,1111.5C 811.353,1113.07 812.02,1114.74 813,1116.5C 814.84,1115.17 815.34,1115.33 814.5,1117C 816.392,1117.97 818.392,1118.64 820.5,1119C 820.043,1119.41 819.709,1119.91 819.5,1120.5C 821.396,1121.47 823.396,1121.8 825.5,1121.5C 825.093,1125.2 824.426,1128.87 823.5,1132.5C 823.608,1133.44 823.941,1134.28 824.5,1135C 823.891,1137.06 822.891,1137.89 821.5,1137.5C 822.5,1138.17 823.5,1138.83 824.5,1139.5C 822.866,1143.7 821.699,1148.03 821,1152.5C 820.667,1151.17 820.333,1149.83 820,1148.5C 819.667,1149.17 819.333,1149.83 819,1150.5C 817.605,1149.57 816.105,1149.57 814.5,1150.5C 813.833,1150.33 813.167,1150.17 812.5,1150C 813.696,1149.35 813.696,1148.85 812.5,1148.5C 809.721,1149.67 809.054,1151.51 810.5,1154C 809.167,1154.67 808.167,1155.67 807.5,1157C 805.14,1156.33 803.14,1157.16 801.5,1159.5C 800.167,1159.17 798.833,1158.83 797.5,1158.5C 796.253,1160.01 796.253,1161.51 797.5,1163C 795.385,1163.56 793.385,1164.39 791.5,1165.5C 790.147,1164.31 788.98,1162.98 788,1161.5C 785.358,1163.06 783.025,1162.73 781,1160.5C 779.259,1164.94 777.093,1168.44 774.5,1171C 771.195,1171.13 767.861,1170.96 764.5,1170.5 Z"/></g>
<g><path style="opacity:1" fill="#7d6241" d="M 849.5,1096.5 C 839.677,1124.64 829.677,1152.64 819.5,1180.5C 819.783,1174.69 820.949,1169.02 823,1163.5C 823.814,1161.72 824.981,1160.22 826.5,1159C 825.978,1158.44 825.645,1157.77 825.5,1157C 826.079,1151.52 827.079,1146.02 828.5,1140.5C 829.48,1139.02 830.647,1137.69 832,1136.5C 832.849,1131.07 834.682,1125.74 837.5,1120.5C 836.607,1117.92 836.274,1115.25 836.5,1112.5C 838.451,1112.23 839.951,1112.89 841,1114.5C 842.572,1109.04 844.405,1103.7 846.5,1098.5C 847.265,1097.39 848.265,1096.72 849.5,1096.5 Z"/></g>
<g><path style="opacity:1" fill="#775d3c" d="M 718.5,1153.5 C 706.418,1148.92 694.752,1143.59 683.5,1137.5C 683.735,1136.9 684.235,1136.57 685,1136.5C 690.057,1139.04 695.223,1141.2 700.5,1143C 703.429,1143.78 706.263,1143.61 709,1142.5C 712.399,1146.06 715.566,1149.72 718.5,1153.5 Z"/></g>
<g><path style="opacity:1" fill="#775e3e" d="M 729.5,1158.5 C 731.167,1158.5 732.833,1158.5 734.5,1158.5C 740.777,1160.47 746.777,1163.3 752.5,1167C 756.723,1167.55 760.723,1168.72 764.5,1170.5C 769.695,1173.99 775.362,1176.66 781.5,1178.5C 785.307,1180.72 788.64,1183.38 791.5,1186.5C 770.719,1177.35 750.052,1168.02 729.5,1158.5 Z"/></g>
<g><path style="opacity:1" fill="#796143" d="M 819.5,1180.5 C 818.588,1186.42 816.421,1191.75 813,1196.5C 805.562,1193.53 798.396,1190.19 791.5,1186.5C 797.035,1187.26 802.535,1188.59 808,1190.5C 809.649,1189.1 810.982,1189.44 812,1191.5C 814.855,1188.8 816.688,1185.47 817.5,1181.5C 817.957,1180.7 818.624,1180.37 819.5,1180.5 Z"/></g>
</svg>
